<svg width="170" height="44" viewBox="0 0 170 44" fill="none" xmlns="http://www.w3.org/2000/svg">
<g clip-path="url(#clip0_59_6)">
<path d="M70.2994 28.0233C70.2994 29.0618 70.0738 30.0305 69.6256 30.9353C69.1774 31.84 68.4464 32.6225 67.4357 33.2858C66.425 33.9491 65.1165 34.4756 63.5071 34.8596C61.8978 35.2465 59.9215 35.4385 57.5782 35.4385C56.2546 35.4385 54.9641 35.3425 53.7067 35.1476C52.4463 34.9556 51.2491 34.6764 50.1151 34.3156C48.981 33.9549 47.9312 33.5127 46.9716 32.9949C46.012 32.4771 45.1818 31.904 44.4839 31.2756L46.3549 29.1055C47.7778 30.2865 49.4352 31.1854 51.3303 31.7993C53.2254 32.4131 55.307 32.7215 57.5782 32.7215C60.0959 32.7215 61.8798 32.384 62.9266 31.7091C63.9734 31.0342 64.4968 30.1062 64.4968 28.9222C64.4968 28.0058 64.0847 27.2349 63.2635 26.6065C62.4393 25.9782 61.0435 25.3644 59.0732 24.7622L51.965 22.592C49.6217 21.8676 47.85 20.9455 46.6527 19.8255C45.4555 18.7055 44.8569 17.2742 44.8569 15.5375C44.8569 14.6444 45.0735 13.7833 45.5127 12.9513C45.9488 12.1193 46.6287 11.3833 47.5522 10.7433C48.4756 10.1033 49.6518 9.59709 51.0867 9.22472C52.5215 8.85236 54.2482 8.66327 56.2696 8.66327C57.4909 8.66327 58.7062 8.75927 59.9185 8.95127C61.1277 9.14327 62.2889 9.42254 63.3988 9.78327C64.5088 10.144 65.5436 10.5862 66.5032 11.104C67.4628 11.6218 68.293 12.1949 68.9909 12.8233L67.1199 14.9935C65.697 13.8124 64.1027 12.9135 62.331 12.2967C60.5592 11.6829 58.5408 11.3745 56.2696 11.3745C54.3986 11.3745 52.9968 11.6887 52.0613 12.3142C51.1258 12.9425 50.6595 13.7135 50.6595 14.6298C50.6595 15.136 50.7468 15.5753 50.9212 15.9505C51.0957 16.3258 51.3875 16.6749 51.7996 17.0007C52.2117 17.3265 52.7532 17.6291 53.427 17.9054C54.1008 18.1818 54.937 18.4785 55.9327 18.7927L63.0048 20.9629C65.2729 21.664 67.0567 22.5804 68.3532 23.712C69.6497 24.8465 70.2994 26.2807 70.2994 28.0175V28.0233Z" fill="#333333"/>
<path d="M73.2925 16.6284H78.5296V28.0262C78.5296 29.7629 78.9778 31.0109 79.8772 31.7702C80.7736 32.5294 82.0731 32.9105 83.7667 32.9105H88.6308V16.6284H93.8679V35.4414H83.7667C80.1991 35.4414 77.561 34.8218 75.8554 33.5796C74.1468 32.3374 73.2925 30.4873 73.2925 28.0262V16.6284Z" fill="#333333"/>
<path d="M118.935 35.4414H113.697V24.0436C113.697 22.3069 113.249 21.0589 112.35 20.2996C111.45 19.5404 110.154 19.1593 108.46 19.1593H103.596V35.4414H98.3591V16.6284H108.46C112.028 16.6284 114.663 17.2509 116.372 18.4902C118.08 19.7324 118.935 21.5825 118.935 24.0436V35.4414Z" fill="#333333"/>
<path d="M128.846 12.1047C128.846 12.8291 128.591 13.4604 128.079 14.0044C127.568 14.5484 126.888 14.8189 126.04 14.8189C125.191 14.8189 124.512 14.5484 124 14.0044C123.489 13.4604 123.233 12.8291 123.233 12.1047C123.233 11.3804 123.489 10.7491 124 10.2051C124.512 9.6611 125.191 9.39055 126.04 9.39055C126.888 9.39055 127.538 9.6611 128.061 10.2051C128.585 10.7491 128.846 11.3804 128.846 12.1047ZM128.66 35.4415H123.423V16.9891H128.66V35.4415Z" fill="#333333"/>
<path d="M135.019 16.9891C135.019 14.6269 135.78 12.768 137.302 11.4182C138.824 10.0684 140.993 9.39345 143.811 9.39345C144.759 9.39345 145.713 9.51563 146.672 9.75417C147.632 9.99563 148.486 10.2982 149.235 10.6589L148.113 13.0094C147.638 12.7447 147.051 12.4974 146.353 12.2676C145.655 12.0378 144.93 11.9244 144.184 11.9244C143.661 11.9244 143.162 12.0204 142.686 12.2124C142.211 12.4044 141.793 12.7011 141.432 13.0996C141.071 13.4982 140.782 14.0218 140.572 14.6734C140.361 15.3251 140.253 16.096 140.253 16.9891V17.3498H146.052V19.8836H140.253V35.4414H135.016V19.8836H131.463V17.3498H135.016V16.9891H135.019Z" fill="#333333"/>
<path d="M164.763 33.9956H159.899C156.331 33.9956 153.693 33.376 151.987 32.1338C150.279 30.8916 149.425 29.0415 149.425 26.5804V15.9069H154.662V26.5804C154.662 28.3171 155.11 29.5651 156.009 30.3244C156.909 31.0836 158.202 31.4647 159.899 31.4647H164.763V15.9069H170V34.3593C170 35.4938 169.774 36.5236 169.326 37.4516C168.878 38.3796 168.21 39.1825 167.326 39.8575C166.441 40.5324 165.331 41.0502 163.996 41.4138C162.66 41.7745 161.108 41.9578 159.336 41.9578C158.738 41.9578 158.094 41.9142 157.411 41.8327C156.725 41.7484 156.033 41.6145 155.335 41.4342C154.638 41.2538 153.958 41.024 153.296 40.7476C152.634 40.4713 152.03 40.1513 151.482 39.7876L152.98 37.6175C153.828 38.1731 154.776 38.6124 155.823 38.9382C156.87 39.264 157.916 39.4269 158.966 39.4269C160.837 39.4269 162.272 39.0167 163.268 38.1964C164.267 37.376 164.766 36.0989 164.766 34.3622V34.0015L164.763 33.9956Z" fill="#333333"/>
<path d="M23.409 26.976L20.7438 32.7564H23.1804L22.0915 35.7876L21.5771 37.2073C19.6399 36.3695 18.2922 34.4873 18.2922 32.3025C18.2922 29.472 20.5573 27.1593 23.4211 26.9498L23.409 26.976Z" fill="#62D152"/>
<path d="M29.2568 31.104C29.2026 30.8945 29.1425 30.688 29.0673 30.4931C28.9891 30.272 28.8898 30.0567 28.7785 29.8473C28.2611 28.8756 27.4489 28.0756 26.4472 27.5636C26.4743 27.5927 26.5014 27.6189 26.5254 27.6451C26.4622 27.6014 26.3961 27.5607 26.3359 27.52C26.3329 27.5171 26.3269 27.5171 26.3269 27.5113L25.7403 28.4102L23.9324 31.1738L25.5027 31.2L26.6999 31.2174L26.6879 31.2349L25.6801 32.5615L25.1928 33.2014L24.3205 34.3418L24.2543 34.4262L23.0571 36L22.0223 37.3644L22.0133 37.376C22.0764 37.3964 22.1366 37.4138 22.1998 37.4371C22.7202 37.5913 23.2706 37.6756 23.8452 37.6756C23.8843 37.6756 23.9234 37.6727 23.9655 37.6727H23.9685C24.5792 37.6611 25.1718 37.5534 25.7192 37.3614C26.4442 37.1084 27.1 36.7156 27.6474 36.2153C27.7196 36.1513 27.7888 36.0814 27.855 36.0174C28.5318 35.3338 29.0191 34.4785 29.2478 33.5302C29.344 33.1375 29.3951 32.7273 29.3951 32.3084C29.3951 31.8894 29.347 31.4967 29.2568 31.1069V31.104Z" fill="#62D152"/>
<path d="M24.8229 24.9164L29.2568 0H35.5618V16.2996L35.3242 16.6284L28.3393 26.3215C27.3346 25.5855 26.1344 25.0851 24.8229 24.9135V24.9164Z" fill="#FE981A"/>
<path d="M0 44V35.8836L16.3611 33.0996C16.5386 34.3651 17.056 35.5287 17.817 36.5004L6.75921 44H0Z" fill="#FE981A"/>
<path d="M0 28.3724V15.712L17.814 27.7207C17.0529 28.6924 16.5355 29.8531 16.3581 31.1215L0 28.3724Z" fill="#FE981A"/>
<path d="M29.7832 27.7207L35.5618 23.8138V30.3855L31.2422 31.1215C31.0617 29.856 30.5443 28.6924 29.7832 27.7207Z" fill="#FE981A"/>
<path d="M29.7832 36.5004C30.5443 35.5287 31.0617 34.368 31.2422 33.0996L35.5618 33.8385V39.2902C35.5618 39.648 35.5167 39.9971 35.4415 40.3287L29.7832 36.4975V36.5004Z" fill="#FE981A"/>
<path d="M14.842 44L19.2579 37.8967C20.2626 38.6356 21.4628 39.1331 22.7744 39.3076L21.9201 43.9971H14.842V44Z" fill="#FE981A"/>
<path d="M24.8229 39.3105C26.1314 39.136 27.3346 38.6385 28.3393 37.8996L32.4996 43.6684L32.7372 44.0029H25.6802L24.8229 39.3135V39.3105Z" fill="#FE981A"/>
<path d="M0.153413 0H18.1569L22.7744 24.9164C21.4658 25.088 20.2626 25.5884 19.2579 26.3244L12.255 16.6429L12.252 16.6458L19.2609 26.3215L0.153413 0Z" fill="#FE981A"/>
</g>
<defs>
<clipPath id="clip0_59_6">
<rect width="170" height="44" fill="white"/>
</clipPath>
</defs>
</svg>
